<?xml version="1.0" encoding="utf-8"?>
<!-- Generator: Adobe Illustrator 27.7.0, SVG Export Plug-In . SVG Version: 6.00 Build 0)  -->
<svg version="1.1" id="Layer_1" xmlns="http://www.w3.org/2000/svg" xmlns:xlink="http://www.w3.org/1999/xlink" x="0px" y="0px"
	 viewBox="0 0 512 512" style="enable-background:new 0 0 512 512;" xml:space="preserve">
<g>
	<path d="M56.89,142.22V85.33c0.03-15.7,12.75-28.42,28.44-28.44l56.89,0c15.71,0,28.44-12.74,28.44-28.44
		C170.67,12.73,157.93,0,142.22,0H85.33C38.19,0.02,0.02,38.19,0,85.33v56.89c0,15.71,12.74,28.44,28.44,28.44
		S56.89,157.93,56.89,142.22z"/>
	<path d="M0,369.78v56.89c0.02,47.14,38.19,85.31,85.33,85.33h56.89c15.71,0,28.44-12.73,28.44-28.44s-12.74-28.44-28.44-28.44
		H85.33c-15.7-0.03-28.42-12.75-28.44-28.44l0-56.89c0-15.71-12.74-28.44-28.44-28.44S0,354.07,0,369.78z"/>
	<path d="M369.78,56.89h56.89c15.7,0.03,28.42,12.75,28.44,28.44v56.89c0,15.71,12.73,28.44,28.44,28.44
		c15.71,0,28.44-12.74,28.44-28.44V85.33C511.98,38.19,473.81,0.02,426.67,0h-56.89c-15.71,0-28.44,12.73-28.44,28.44
		C341.33,44.15,354.07,56.89,369.78,56.89z"/>
	<path d="M369.78,512h56.89c47.14-0.02,85.31-38.19,85.33-85.33l0-56.89c0-15.71-12.74-28.44-28.44-28.44
		c-15.71,0-28.44,12.74-28.44,28.44v56.89c-0.03,15.7-12.75,28.42-28.44,28.44h-56.89c-15.71,0-28.44,12.74-28.44,28.44
		S354.07,512,369.78,512z"/>
	<path d="M271.08,294.34l113.78-71.11c13.32-8.33,17.37-25.87,9.05-39.2c-8.33-13.32-25.87-17.37-39.2-9.05L240.92,246.1
		c-13.32,8.33-17.37,25.87-9.05,39.2C240.21,298.62,257.75,302.67,271.08,294.34"/>
	<path d="M142.22,199.11l-15.08,24.12l100.41,62.76l0,112.23c0,10.34,5.61,19.86,14.66,24.88c9.05,5.01,20.09,4.72,28.86-0.76
		l113.78-71.11c8.3-5.19,13.37-14.33,13.37-24.12v-128c0-9.79-5.06-18.93-13.37-24.12l-113.78-71.11c-9.23-5.77-20.92-5.77-30.15,0
		l-113.78,71.11c-8.3,5.19-13.37,14.33-13.37,24.12c0,9.79,5.06,18.93,13.37,24.12L142.22,199.11l15.08,24.12l98.7-61.69
		l85.33,53.33v96.47l-56.89,35.56v-76.68c0-9.79-5.06-18.93-13.37-24.12L157.3,174.99L142.22,199.11l15.08,24.12L142.22,199.11z"/>
	<path d="M113.78,199.11v128c0,9.79,5.06,18.93,13.37,24.12l113.78,71.11c13.32,8.33,30.87,4.28,39.2-9.05
		c8.33-13.32,4.28-30.87-9.05-39.2l-100.41-62.76l0-112.23c0-15.71-12.74-28.44-28.44-28.44
		C126.51,170.67,113.78,183.4,113.78,199.11L113.78,199.11z"/>
</g>
</svg>
